<svg width="99" height="99" viewBox="0 0 99 99" fill="none" xmlns="http://www.w3.org/2000/svg">
<path d="M99 0H0V99H99V0Z" fill="#0166FF"/>
<path d="M22.0506 29.3806C29.5197 29.3806 39.5972 30.6339 50.8602 33.6487C66.9842 37.9676 81.3297 46.309 86.6902 54.4556C86.7665 54.4218 86.8427 54.3794 86.9189 54.3455C88.8328 53.3971 89.9675 52.1861 90.2724 50.7549L90.2893 50.6618C91.585 43.8108 74.5634 33.818 52.3422 28.3813C47.0579 27.0941 41.8329 26.1456 36.8365 25.5613C21.2291 23.7406 10.0254 25.7307 8.94988 30.4984L8.93294 30.5915C8.81438 31.2097 8.83979 31.2775 9.08538 31.7517C9.11925 31.8195 9.15312 31.8872 9.19547 31.9634C9.56808 31.6755 9.99997 31.4045 10.4742 31.1505C12.6082 30.0326 16.6477 29.3721 22.0506 29.3721V29.3806Z" fill="white" stroke="#0166FF" stroke-width="0.75" stroke-miterlimit="10"/>
<path d="M11.7699 44.7333L20.611 46.0967L13.5314 36.1124L12.9555 38.9493L12.5744 38.5343C12.3119 38.2464 11.8885 37.8569 11.4396 37.4419C10.7452 36.7983 10.0254 36.1378 9.69515 35.672C9.28019 35.0792 8.94146 34.4949 8.6874 33.9444C8.5011 33.5464 8.35713 33.1484 8.24704 32.7673L7.65425 36.3326C7.29011 38.0516 9.70362 40.6006 12.0833 42.4129L12.2272 42.523L11.7784 44.7417L11.7699 44.7333Z" fill="white" stroke="#0166FF" stroke-width="0.15" stroke-miterlimit="10"/>
<path d="M66.1797 58.5884L63.8932 71.8754C83.2437 71.1302 88.3501 66.3879 89.2224 62.5262L91.0262 53.211C90.391 53.9901 89.4764 54.6845 88.2824 55.2773C88.1299 55.3535 87.969 55.4297 87.7997 55.5059C83.2775 57.5299 76.6044 58.4783 66.1797 58.5969V58.5884Z" fill="white"/>
<path d="M91.7206 51.0769L92 51.1277M66.1797 58.5884L63.8932 71.8754C83.2437 71.1302 88.3501 66.3879 89.2224 62.5262L91.0262 53.211C90.391 53.9901 89.4764 54.6845 88.2824 55.2773C88.1299 55.3535 87.969 55.4297 87.7997 55.5059C83.2775 57.5299 76.6044 58.4783 66.1797 58.5969V58.5884Z" stroke="#0166FF" stroke-width="0.75" stroke-miterlimit="10"/>
<path d="M58.6511 51.1609H53.7648V66.5057H58.6511V51.1609Z" fill="white" stroke="#0166FF" stroke-width="0.15" stroke-miterlimit="10"/>
<path d="M43.0523 51.1607H41.0198V54.7598H43.0523V62.2205C43.0353 63.2621 43.247 64.1259 43.6789 64.8119C44.1108 65.4978 44.729 66.0059 45.5505 66.3277C46.3634 66.6495 47.3458 66.785 48.489 66.7342C49.0733 66.7088 49.5814 66.6411 50.0049 66.5479C50.4283 66.4463 50.7586 66.3616 50.9872 66.3023L50.2504 62.7794C50.1488 62.8049 49.9879 62.8387 49.7762 62.8726C49.5645 62.9065 49.3697 62.9234 49.1834 62.9234C48.9209 62.9234 48.7007 62.8895 48.5144 62.8049C48.3281 62.7286 48.1841 62.6016 48.091 62.4153C47.9978 62.229 47.947 61.9919 47.947 61.687V54.7683H50.7162V51.1692H47.947V46.6555L43.0607 47.7818V51.1692L43.0523 51.1607Z" fill="white" stroke="#0166FF" stroke-width="0.15" stroke-miterlimit="10"/>
<path d="M53.7648 45.2928V48.587H58.6427V44.1665L53.7648 45.2928Z" fill="white" stroke="#0166FF" stroke-width="0.15" stroke-miterlimit="10"/>
<path d="M24.2354 66.4966H29.1217V57.7486C29.1217 57.1643 29.2403 56.6647 29.4435 56.2497C29.6552 55.8348 29.9516 55.5214 30.3412 55.2928C30.7307 55.0726 31.1795 54.9541 31.6961 54.9541C32.4667 54.9541 33.0765 55.1912 33.5084 55.6739C33.9403 56.1566 34.1604 56.8171 34.152 57.6724V66.4966H39.0383V56.7155C39.0383 55.5638 38.8265 54.556 38.3862 53.6923C37.9458 52.8285 37.3276 52.1595 36.5316 51.6768C35.7356 51.1941 34.7956 50.9485 33.7201 50.9485C32.5853 50.9485 31.6114 51.2195 30.79 51.753C29.9686 52.2865 29.3927 53.0233 29.054 53.9633H28.8846V51.0247L24.2439 52.1002V66.4881L24.2354 66.4966Z" fill="white" stroke="#0166FF" stroke-width="0.15" stroke-miterlimit="10"/>
</svg>
